<?xml version="1.0" encoding="utf-8"?>
<!-- Generator: Adobe Illustrator 22.1.0, SVG Export Plug-In . SVG Version: 6.00 Build 0)  -->
<svg version="1.1" id="Layer_1" xmlns="http://www.w3.org/2000/svg" xmlns:xlink="http://www.w3.org/1999/xlink" x="0px" y="0px"
	 viewBox="0 0 512 512" style="enable-background:new 0 0 512 512;" xml:space="preserve">
<style type="text/css">
	.st0{fill:#5C6689;}
</style>
<g transform="translate(1 1)">
	<g>
		<g>
			<path class="st0" d="M502.5,493.9h-34.7c0.4-2.8,0.5-5.7,0.5-8.5c0-24.1-13.9-44.6-34.1-54.1V144.1c0-5.1-3.4-8.5-8.5-8.5h-128
				V7.5c0-5.1-3.4-8.5-8.5-8.5H58.7c-5.1,0-8.5,3.4-8.5,8.5v486.4H7.5c-5.1,0-8.5,3.4-8.5,8.5s3.4,8.5,8.5,8.5h51.2h25.6h204.8
				h168.1h45.2c5.1,0,8.5-3.4,8.5-8.5S507.6,493.9,502.5,493.9z M417.1,426.3c-2.8-0.4-5.6-0.6-8.5-0.6c-6.4,0-12.8,1.1-18.7,3.1
				c-1.5-2-3.9-3.1-6.9-3.1c-5.1,0-8.5,3.4-8.5,8.5v2.6c-3.2,2.3-6.2,5-9,7.9c-0.4,0.5-0.9,0.9-1.3,1.4
				c-7.1-8.8-16.2-15.2-26.5-18.3c-1.5-1.4-3.5-2.1-6-2.1c-1,0-1.8,0.1-2.7,0.3c-1.9-0.2-3.9-0.3-5.9-0.3c-5.3,0-11.4,0.7-16.2,2.7
				c-0.6,0.2-1.2,0.4-1.8,0.6c-5.9-4.8-12.8-8.2-20.1-10.1c-0.1,0-0.2,0-0.2-0.1c-0.6-0.2-1.3-0.3-1.9-0.5c-0.5-0.1-1-0.2-1.6-0.3
				c-0.2,0-0.5-0.1-0.7-0.1c-0.5-0.1-1.1-0.2-1.7-0.3c-0.2,0-0.5-0.1-0.7-0.1c-0.5-0.1-1-0.1-1.5-0.2c-0.4,0-0.8-0.1-1.1-0.1
				c-0.4,0-0.8-0.1-1.2-0.1c-0.8,0-1.6-0.1-2.4-0.1c-0.6,0-1.3,0-1.9,0c-0.4,0-0.8,0-1.2,0.1c-0.2,0-0.3,0-0.5,0
				c-7.8,0.5-15.4,2.7-22,6.6V152.6h42.7h128L417.1,426.3L417.1,426.3z M67.3,16.1h213.3v119.5h-42.7c-5.1,0-8.5,3.4-8.5,8.5v265.4
				c-4.4-4.4-9.4-8-14.9-10.9c-0.5-0.3-1-0.5-1.5-0.8c-0.2-0.1-0.4-0.2-0.6-0.3c-6.1-3-12.7-4.9-19.6-5.6c-0.1,0-0.2,0-0.3,0
				c-0.8-0.1-1.6-0.1-2.4-0.2c-0.2,0-0.4,0-0.6,0c-0.9,0-1.8-0.1-2.8-0.1c-12.7,0-24.5,4.2-34.1,11.2v-2.7c0-5.1-3.4-8.5-8.5-8.5
				c-5.1,0-8.5,3.4-8.5,8.5v17.1c0,1.3,0.2,2.5,0.6,3.5c-4.2,6.9-7.1,14.7-8.3,23c-9.8,1.1-18.8,4.7-26.5,9.9v-2.3
				c0-5.1-3.4-8.5-8.5-8.5c-5.1,0-8.5,3.4-8.5,8.5v17.1c0,1,0.1,1.9,0.4,2.8c-4.2,6.8-7.1,14.6-8.3,22.8h-9.1L67.3,16.1L67.3,16.1z
				 M131.6,460c0.2,0,0.3,0,0.5,0c0.4,0,0.9-0.1,1.4-0.1c0.7,0,1.3,0,2,0c5.1,0,8.5-3.4,8.5-8.5c0-23.9,18.8-42.7,42.7-42.7
				c21.3,0,39.3,15.4,41.8,36.7c0.6,2.3,1.9,4.2,3.8,5.5c0.1,0.1,0.2,0.2,0.4,0.2c0.1,0.1,0.3,0.2,0.4,0.2c0.3,0.2,0.6,0.3,1,0.5
				c0,0,0,0,0,0c0.4,0.2,0.8,0.3,1.2,0.4c0,0,0,0,0,0c0.5,0.2,1.1,0.2,1.7,0.2c2.8,0,5.4-1.5,6.8-3.6c0,0,0,0,0,0l0,0l0.9-0.9
				c6.8-8.5,16.2-13.7,27.3-13.7c5.8,0,11.5,1.6,16.7,4.6c-10.2,9.6-16,22-16.6,35.4c0,0.9-0.1,1.8-0.1,2.6c0,5.9,1,11.6,2.9,17.1
				H93.7C97.7,475.6,112.9,461.7,131.6,460z M295.2,493.9c-3.3-5.5-5.2-12-5.2-17.9c0-9.4,3.7-17.9,10.1-24.2
				c1.2-1.1,2.5-2.2,3.9-3.1c1.3,0,2.7-0.3,3.9-0.9c18.8-10.2,41-0.9,47.8,17.9c0.9,2.6,3.4,5.1,7.7,5.1c0.8,0,1.7-0.3,2.6-0.7
				c2.1-0.4,3.8-1.9,5.1-4.4c3.3-7,8.4-12.6,14.7-16.6c1.3-0.4,2.5-1,3.4-1.9c5.9-2.9,12.5-4.5,19.5-4.5c23.9,0,42.7,18.8,42.7,42.7
				c0,2.6,0,6-0.9,8.5L295.2,493.9L295.2,493.9z"/>
			<path class="st0" d="M280.6,220.9c-5.1,0-8.5,3.4-8.5,8.5v17.1c0,5.1,3.4,8.5,8.5,8.5s8.5-3.4,8.5-8.5v-17.1
				C289.1,224.3,285.7,220.9,280.6,220.9z"/>
			<path class="st0" d="M280.6,374.5c-5.1,0-8.5,3.4-8.5,8.5v17.1c0,5.1,3.4,8.5,8.5,8.5s8.5-3.4,8.5-8.5V383
				C289.1,377.9,285.7,374.5,280.6,374.5z"/>
			<path class="st0" d="M280.6,272.1c-5.1,0-8.5,3.4-8.5,8.5v17.1c0,5.1,3.4,8.5,8.5,8.5s8.5-3.4,8.5-8.5v-17.1
				C289.1,275.5,285.7,272.1,280.6,272.1z"/>
			<path class="st0" d="M280.6,323.3c-5.1,0-8.5,3.4-8.5,8.5v17.1c0,5.1,3.4,8.5,8.5,8.5s8.5-3.4,8.5-8.5v-17.1
				C289.1,326.7,285.7,323.3,280.6,323.3z"/>
			<path class="st0" d="M280.6,169.7c-5.1,0-8.5,3.4-8.5,8.5v17.1c0,5.1,3.4,8.5,8.5,8.5s8.5-3.4,8.5-8.5v-17.1
				C289.1,173.1,285.7,169.7,280.6,169.7z"/>
			<path class="st0" d="M331.8,255c5.1,0,8.5-3.4,8.5-8.5v-17.1c0-5.1-3.4-8.5-8.5-8.5s-8.5,3.4-8.5,8.5v17.1
				C323.3,251.6,326.7,255,331.8,255z"/>
			<path class="st0" d="M331.8,203.8c5.1,0,8.5-3.4,8.5-8.5v-17.1c0-5.1-3.4-8.5-8.5-8.5s-8.5,3.4-8.5,8.5v17.1
				C323.3,200.4,326.7,203.8,331.8,203.8z"/>
			<path class="st0" d="M331.8,306.2c5.1,0,8.5-3.4,8.5-8.5v-17.1c0-5.1-3.4-8.5-8.5-8.5s-8.5,3.4-8.5,8.5v17.1
				C323.3,302.8,326.7,306.2,331.8,306.2z"/>
			<path class="st0" d="M331.8,357.4c5.1,0,8.5-3.4,8.5-8.5v-17.1c0-5.1-3.4-8.5-8.5-8.5s-8.5,3.4-8.5,8.5v17.1
				C323.3,354,326.7,357.4,331.8,357.4z"/>
			<path class="st0" d="M331.8,408.6c5.1,0,8.5-3.4,8.5-8.5V383c0-5.1-3.4-8.5-8.5-8.5s-8.5,3.4-8.5,8.5v17.1
				C323.3,405.2,326.7,408.6,331.8,408.6z"/>
			<path class="st0" d="M383,306.2c5.1,0,8.5-3.4,8.5-8.5v-17.1c0-5.1-3.4-8.5-8.5-8.5s-8.5,3.4-8.5,8.5v17.1
				C374.5,302.8,377.9,306.2,383,306.2z"/>
			<path class="st0" d="M383,255c5.1,0,8.5-3.4,8.5-8.5v-17.1c0-5.1-3.4-8.5-8.5-8.5s-8.5,3.4-8.5,8.5v17.1
				C374.5,251.6,377.9,255,383,255z"/>
			<path class="st0" d="M383,408.6c5.1,0,8.5-3.4,8.5-8.5V383c0-5.1-3.4-8.5-8.5-8.5s-8.5,3.4-8.5,8.5v17.1
				C374.5,405.2,377.9,408.6,383,408.6z"/>
			<path class="st0" d="M383,357.4c5.1,0,8.5-3.4,8.5-8.5v-17.1c0-5.1-3.4-8.5-8.5-8.5s-8.5,3.4-8.5,8.5v17.1
				C374.5,354,377.9,357.4,383,357.4z"/>
			<path class="st0" d="M383,203.8c5.1,0,8.5-3.4,8.5-8.5v-17.1c0-5.1-3.4-8.5-8.5-8.5s-8.5,3.4-8.5,8.5v17.1
				C374.5,200.4,377.9,203.8,383,203.8z"/>
			<path class="st0" d="M92.9,323.3c5.1,0,8.5-3.4,8.5-8.5v-17.1c0-5.1-3.4-8.5-8.5-8.5c-5.1,0-8.5,3.4-8.5,8.5v17.1
				C84.3,319.9,87.7,323.3,92.9,323.3z"/>
			<path class="st0" d="M92.9,374.5c5.1,0,8.5-3.4,8.5-8.5v-17.1c0-5.1-3.4-8.5-8.5-8.5c-5.1,0-8.5,3.4-8.5,8.5v17.1
				C84.3,371.1,87.7,374.5,92.9,374.5z"/>
			<path class="st0" d="M92.9,425.7c5.1,0,8.5-3.4,8.5-8.5v-17.1c0-5.1-3.4-8.5-8.5-8.5c-5.1,0-8.5,3.4-8.5,8.5v17.1
				C84.3,422.3,87.7,425.7,92.9,425.7z"/>
			<path class="st0" d="M92.9,67.3c5.1,0,8.5-3.4,8.5-8.5V41.7c0-5.1-3.4-8.5-8.5-8.5c-5.1,0-8.5,3.4-8.5,8.5v17.1
				C84.3,63.9,87.7,67.3,92.9,67.3z"/>
			<path class="st0" d="M92.9,118.5c5.1,0,8.5-3.4,8.5-8.5V92.9c0-5.1-3.4-8.5-8.5-8.5c-5.1,0-8.5,3.4-8.5,8.5v17.1
				C84.3,115.1,87.7,118.5,92.9,118.5z"/>
			<path class="st0" d="M92.9,169.7c5.1,0,8.5-3.4,8.5-8.5v-17.1c0-5.1-3.4-8.5-8.5-8.5c-5.1,0-8.5,3.4-8.5,8.5v17.1
				C84.3,166.3,87.7,169.7,92.9,169.7z"/>
			<path class="st0" d="M92.9,220.9c5.1,0,8.5-3.4,8.5-8.5v-17.1c0-5.1-3.4-8.5-8.5-8.5c-5.1,0-8.5,3.4-8.5,8.5v17.1
				C84.3,217.5,87.7,220.9,92.9,220.9z"/>
			<path class="st0" d="M92.9,272.1c5.1,0,8.5-3.4,8.5-8.5v-17.1c0-5.1-3.4-8.5-8.5-8.5c-5.1,0-8.5,3.4-8.5,8.5v17.1
				C84.3,268.7,87.7,272.1,92.9,272.1z"/>
			<path class="st0" d="M144.1,118.5c5.1,0,8.5-3.4,8.5-8.5V92.9c0-5.1-3.4-8.5-8.5-8.5c-5.1,0-8.5,3.4-8.5,8.5v17.1
				C135.5,115.1,138.9,118.5,144.1,118.5z"/>
			<path class="st0" d="M144.1,67.3c5.1,0,8.5-3.4,8.5-8.5V41.7c0-5.1-3.4-8.5-8.5-8.5c-5.1,0-8.5,3.4-8.5,8.5v17.1
				C135.5,63.9,138.9,67.3,144.1,67.3z"/>
			<path class="st0" d="M144.1,220.9c5.1,0,8.5-3.4,8.5-8.5v-17.1c0-5.1-3.4-8.5-8.5-8.5c-5.1,0-8.5,3.4-8.5,8.5v17.1
				C135.5,217.5,138.9,220.9,144.1,220.9z"/>
			<path class="st0" d="M144.1,169.7c5.1,0,8.5-3.4,8.5-8.5v-17.1c0-5.1-3.4-8.5-8.5-8.5c-5.1,0-8.5,3.4-8.5,8.5v17.1
				C135.5,166.3,138.9,169.7,144.1,169.7z"/>
			<path class="st0" d="M144.1,272.1c5.1,0,8.5-3.4,8.5-8.5v-17.1c0-5.1-3.4-8.5-8.5-8.5c-5.1,0-8.5,3.4-8.5,8.5v17.1
				C135.5,268.7,138.9,272.1,144.1,272.1z"/>
			<path class="st0" d="M144.1,323.3c5.1,0,8.5-3.4,8.5-8.5v-17.1c0-5.1-3.4-8.5-8.5-8.5c-5.1,0-8.5,3.4-8.5,8.5v17.1
				C135.5,319.9,138.9,323.3,144.1,323.3z"/>
			<path class="st0" d="M144.1,374.5c5.1,0,8.5-3.4,8.5-8.5v-17.1c0-5.1-3.4-8.5-8.5-8.5c-5.1,0-8.5,3.4-8.5,8.5v17.1
				C135.5,371.1,138.9,374.5,144.1,374.5z"/>
			<path class="st0" d="M195.3,169.7c5.1,0,8.5-3.4,8.5-8.5v-17.1c0-5.1-3.4-8.5-8.5-8.5s-8.5,3.4-8.5,8.5v17.1
				C186.7,166.3,190.1,169.7,195.3,169.7z"/>
			<path class="st0" d="M195.3,118.5c5.1,0,8.5-3.4,8.5-8.5V92.9c0-5.1-3.4-8.5-8.5-8.5s-8.5,3.4-8.5,8.5v17.1
				C186.7,115.1,190.1,118.5,195.3,118.5z"/>
			<path class="st0" d="M195.3,67.3c5.1,0,8.5-3.4,8.5-8.5V41.7c0-5.1-3.4-8.5-8.5-8.5s-8.5,3.4-8.5,8.5v17.1
				C186.7,63.9,190.1,67.3,195.3,67.3z"/>
			<path class="st0" d="M195.3,374.5c5.1,0,8.5-3.4,8.5-8.5v-17.1c0-5.1-3.4-8.5-8.5-8.5s-8.5,3.4-8.5,8.5v17.1
				C186.7,371.1,190.1,374.5,195.3,374.5z"/>
			<path class="st0" d="M195.3,323.3c5.1,0,8.5-3.4,8.5-8.5v-17.1c0-5.1-3.4-8.5-8.5-8.5s-8.5,3.4-8.5,8.5v17.1
				C186.7,319.9,190.1,323.3,195.3,323.3z"/>
			<path class="st0" d="M195.3,272.1c5.1,0,8.5-3.4,8.5-8.5v-17.1c0-5.1-3.4-8.5-8.5-8.5s-8.5,3.4-8.5,8.5v17.1
				C186.7,268.7,190.1,272.1,195.3,272.1z"/>
			<path class="st0" d="M195.3,220.9c5.1,0,8.5-3.4,8.5-8.5v-17.1c0-5.1-3.4-8.5-8.5-8.5s-8.5,3.4-8.5,8.5v17.1
				C186.7,217.5,190.1,220.9,195.3,220.9z"/>
			<path class="st0" d="M246.5,118.5c5.1,0,8.5-3.4,8.5-8.5V92.9c0-5.1-3.4-8.5-8.5-8.5s-8.5,3.4-8.5,8.5v17.1
				C237.9,115.1,241.3,118.5,246.5,118.5z"/>
			<path class="st0" d="M246.5,67.3c5.1,0,8.5-3.4,8.5-8.5V41.7c0-5.1-3.4-8.5-8.5-8.5s-8.5,3.4-8.5,8.5v17.1
				C237.9,63.9,241.3,67.3,246.5,67.3z"/>
		</g>
	</g>
</g>
</svg>
