<?xml version="1.0" encoding="utf-8"?>
<!-- Generator: Adobe Illustrator 22.1.0, SVG Export Plug-In . SVG Version: 6.00 Build 0)  -->
<svg version="1.1" id="Capa_1" xmlns="http://www.w3.org/2000/svg" xmlns:xlink="http://www.w3.org/1999/xlink" x="0px" y="0px"
	 viewBox="0 0 463 463" style="enable-background:new 0 0 463 463;" xml:space="preserve">
<style type="text/css">
	.st0{fill:#5C6689;}
</style>
<g>
	<path class="st0" d="M375.5,0h-224c-0.1,0-0.2,0-0.3,0c-0.1,0-0.2,0-0.3,0c-0.3,0-0.6,0.1-0.9,0.1c0,0,0,0,0,0
		c-0.3,0.1-0.7,0.2-1,0.3c-0.1,0-0.1,0-0.2,0.1c-0.3,0.1-0.6,0.2-0.9,0.4c0,0,0,0-0.1,0c-0.3,0.2-0.6,0.3-0.8,0.5
		c-0.1,0-0.1,0.1-0.2,0.1c-0.3,0.2-0.5,0.4-0.8,0.6c0,0,0,0,0,0l-80,80c0,0,0,0,0,0c-0.2,0.2-0.4,0.5-0.7,0.8c0,0.1-0.1,0.1-0.1,0.2
		c-0.2,0.3-0.4,0.5-0.5,0.8c0,0,0,0,0,0.1c-0.1,0.3-0.3,0.6-0.4,0.9c0,0.1,0,0.1-0.1,0.2c-0.1,0.3-0.2,0.6-0.3,1c0,0,0,0,0,0
		C64.1,86.4,64,86.7,64,87c0,0.1,0,0.2,0,0.3c0,0.1,0,0.2,0,0.3v352c0,13,10.5,23.5,23.5,23.5h288c13,0,23.5-10.5,23.5-23.5v-416
		C399,10.5,388.5,0,375.5,0z M144,25.6v45.9c0,4.7-3.8,8.5-8.5,8.5H89.6L144,25.6z M384,439.5c0,4.7-3.8,8.5-8.5,8.5h-288
		c-4.7,0-8.5-3.8-8.5-8.5V95h56.5c13,0,23.5-10.5,23.5-23.5V15h216.5c4.7,0,8.5,3.8,8.5,8.5V439.5z"/>
	<path class="st0" d="M135.5,127h192c4.1,0,7.5-3.4,7.5-7.5s-3.4-7.5-7.5-7.5h-192c-4.1,0-7.5,3.4-7.5,7.5S131.4,127,135.5,127z"/>
	<path class="st0" d="M135.5,167h192c4.1,0,7.5-3.4,7.5-7.5s-3.4-7.5-7.5-7.5h-192c-4.1,0-7.5,3.4-7.5,7.5S131.4,167,135.5,167z"/>
	<path class="st0" d="M135.5,207h192c4.1,0,7.5-3.4,7.5-7.5s-3.4-7.5-7.5-7.5h-192c-4.1,0-7.5,3.4-7.5,7.5S131.4,207,135.5,207z"/>
	<path class="st0" d="M135.5,247h192c4.1,0,7.5-3.4,7.5-7.5s-3.4-7.5-7.5-7.5h-192c-4.1,0-7.5,3.4-7.5,7.5S131.4,247,135.5,247z"/>
	<path class="st0" d="M135.5,287h192c4.1,0,7.5-3.4,7.5-7.5s-3.4-7.5-7.5-7.5h-192c-4.1,0-7.5,3.4-7.5,7.5S131.4,287,135.5,287z"/>
	<path class="st0" d="M231.5,328h-96c-4.1,0-7.5,3.4-7.5,7.5s3.4,7.5,7.5,7.5h96c4.1,0,7.5-3.4,7.5-7.5S235.6,328,231.5,328z"/>
	<path class="st0" d="M231.5,368h-96c-4.1,0-7.5,3.4-7.5,7.5s3.4,7.5,7.5,7.5h96c4.1,0,7.5-3.4,7.5-7.5S235.6,368,231.5,368z"/>
	<path class="st0" d="M299.5,344c-6.3,0-11.5,5.2-11.5,11.5s5.2,11.5,11.5,11.5s11.5-5.2,11.5-11.5S305.8,344,299.5,344z"/>
	<path class="st0" d="M299.5,312c-24,0-43.5,19.5-43.5,43.5s19.5,43.5,43.5,43.5s43.5-19.5,43.5-43.5S323.5,312,299.5,312z
		 M299.5,384c-15.7,0-28.5-12.8-28.5-28.5s12.8-28.5,28.5-28.5s28.5,12.8,28.5,28.5S315.2,384,299.5,384z"/>
</g>
</svg>
