<?xml version="1.0" encoding="utf-8"?>
<!-- Generator: Adobe Illustrator 22.1.0, SVG Export Plug-In . SVG Version: 6.00 Build 0)  -->
<svg version="1.1" id="Capa_1" xmlns="http://www.w3.org/2000/svg" xmlns:xlink="http://www.w3.org/1999/xlink" x="0px" y="0px"
	 viewBox="0 0 512 512" style="enable-background:new 0 0 512 512;" xml:space="preserve">
<style type="text/css">
	.st0{fill:#5C6689;}
</style>
<g>
	<g>
		<g>
			<path class="st0" d="M469.3,0H42.7C19.1,0,0,19.1,0,42.7v426.7C0,492.9,19.1,512,42.7,512h426.7c23.6,0,42.6-19.1,42.7-42.7V42.7
				C512,19.1,492.9,0,469.3,0z M494.9,469.3c0,14.1-11.5,25.6-25.6,25.6H42.7c-14.1,0-25.6-11.5-25.6-25.6v-384h477.9L494.9,469.3
				L494.9,469.3z M494.9,68.3H17.1V42.7c0-14.1,11.5-25.6,25.6-25.6h426.7c14.1,0,25.6,11.5,25.6,25.6L494.9,68.3L494.9,68.3z"/>
			<path class="st0" d="M59.7,34.1h-8.5c-4.7,0-8.5,3.8-8.5,8.5s3.8,8.5,8.5,8.5h8.5c4.7,0,8.5-3.8,8.5-8.5S64.4,34.1,59.7,34.1z"/>
			<path class="st0" d="M98.6,35.6c-0.5-0.3-1-0.6-1.5-0.8c-0.5-0.3-1.1-0.4-1.6-0.5c-2.8-0.5-5.6,0.3-7.7,2.3
				c-3.3,3.4-3.3,8.8,0,12.1c1.6,1.6,3.8,2.4,6.1,2.5c0.5,0,1.1-0.1,1.6-0.2c0.6-0.1,1.1-0.3,1.6-0.5c0.5-0.2,1.1-0.4,1.5-0.8
				c0.4-0.3,0.9-0.7,1.3-1c0.8-0.8,1.4-1.8,1.8-2.8c0.4-1,0.7-2.1,0.7-3.2c0-2.3-0.9-4.4-2.5-6.1C99.5,36.2,99.1,35.9,98.6,35.6z"/>
			<path class="st0" d="M124.8,34.8c-1,0.4-2,1-2.8,1.8c-3.3,3.4-3.3,8.8,0,12.1c0.8,0.8,1.8,1.4,2.8,1.8c1,0.4,2.1,0.7,3.2,0.7
				c2.3,0,4.4-0.9,6.1-2.5c3.3-3.4,3.3-8.8,0-12.1C131.6,34.2,127.9,33.5,124.8,34.8z"/>
			<path class="st0" d="M460.8,34.1H170.7c-4.7,0-8.5,3.8-8.5,8.5s3.8,8.5,8.5,8.5h290.1c4.7,0,8.5-3.8,8.5-8.5
				S465.5,34.1,460.8,34.1z"/>
			<path class="st0" d="M59.1,230.4h86.6c9.1,0,16.4-7.4,16.4-16.4v-86.6c0-9.1-7.4-16.4-16.4-16.4H59.1c-9.1,0-16.4,7.4-16.4,16.4
				V214C42.7,223,50,230.4,59.1,230.4z M59.7,128h85.3v85.3H59.7V128z"/>
			<path class="st0" d="M212.7,230.4h86.6c9.1,0,16.4-7.4,16.4-16.4v-86.6c0-9.1-7.4-16.4-16.4-16.4h-86.6
				c-9.1,0-16.4,7.4-16.4,16.4V214C196.3,223,203.6,230.4,212.7,230.4z M213.3,128h85.3v85.3h-85.3L213.3,128L213.3,128z"/>
			<path class="st0" d="M366.3,230.4h86.6c9.1,0,16.4-7.4,16.4-16.4v-86.6c0-9.1-7.4-16.4-16.4-16.4h-86.6
				c-9.1,0-16.4,7.4-16.4,16.4V214C349.9,223,357.2,230.4,366.3,230.4z M366.9,128h85.3v85.3h-85.3V128z"/>
			<path class="st0" d="M59.7,264.5h85.3c4.7,0,8.5-3.8,8.5-8.5s-3.8-8.5-8.5-8.5H59.7c-4.7,0-8.5,3.8-8.5,8.5S55,264.5,59.7,264.5z
				"/>
			<path class="st0" d="M59.7,298.7h85.3c4.7,0,8.5-3.8,8.5-8.5s-3.8-8.5-8.5-8.5H59.7c-4.7,0-8.5,3.8-8.5,8.5S55,298.7,59.7,298.7z
				"/>
			<path class="st0" d="M59.7,332.8h85.3c4.7,0,8.5-3.8,8.5-8.5s-3.8-8.5-8.5-8.5H59.7c-4.7,0-8.5,3.8-8.5,8.5S55,332.8,59.7,332.8z
				"/>
			<path class="st0" d="M213.3,264.5h85.3c4.7,0,8.5-3.8,8.5-8.5s-3.8-8.5-8.5-8.5h-85.3c-4.7,0-8.5,3.8-8.5,8.5
				S208.6,264.5,213.3,264.5z"/>
			<path class="st0" d="M213.3,298.7h85.3c4.7,0,8.5-3.8,8.5-8.5s-3.8-8.5-8.5-8.5h-85.3c-4.7,0-8.5,3.8-8.5,8.5
				S208.6,298.7,213.3,298.7z"/>
			<path class="st0" d="M213.3,332.8h85.3c4.7,0,8.5-3.8,8.5-8.5s-3.8-8.5-8.5-8.5h-85.3c-4.7,0-8.5,3.8-8.5,8.5
				S208.6,332.8,213.3,332.8z"/>
			<path class="st0" d="M366.9,264.5h85.3c4.7,0,8.5-3.8,8.5-8.5s-3.8-8.5-8.5-8.5h-85.3c-4.7,0-8.5,3.8-8.5,8.5
				S362.2,264.5,366.9,264.5z"/>
			<path class="st0" d="M366.9,298.7h85.3c4.7,0,8.5-3.8,8.5-8.5s-3.8-8.5-8.5-8.5h-85.3c-4.7,0-8.5,3.8-8.5,8.5
				S362.2,298.7,366.9,298.7z"/>
			<path class="st0" d="M366.9,332.8h85.3c4.7,0,8.5-3.8,8.5-8.5s-3.8-8.5-8.5-8.5h-85.3c-4.7,0-8.5,3.8-8.5,8.5
				S362.2,332.8,366.9,332.8z"/>
			<path class="st0" d="M426.7,366.9H162.1c-0.5,0.1-1,0.2-1.5,0.3c-0.5,0-1,0.1-1.5,0.2l-68.3,25.6c-3.3,1.3-5.5,4.4-5.5,8v17.1
				c0,3.6,2.2,6.7,5.5,8l68.3,25.6c1,0.4,2,0.5,3,0.5h264.5c23.6,0,42.7-19.1,42.7-42.7S450.2,366.9,426.7,366.9z M153.6,431.4
				l-51.2-19.2V407l51.2-19.2V431.4z M375.5,435.2H170.7V384h204.8V435.2z M426.7,435.2h-34.1V384h34.1c14.1,0,25.6,11.5,25.6,25.6
				S440.8,435.2,426.7,435.2z"/>
			<path class="st0" d="M51.2,418.1h17.1c4.7,0,8.5-3.8,8.5-8.5s-3.8-8.5-8.5-8.5H51.2c-4.7,0-8.5,3.8-8.5,8.5
				S46.5,418.1,51.2,418.1z"/>
		</g>
	</g>
</g>
</svg>
