<?xml version="1.0" encoding="utf-8"?>
<!-- Generator: Adobe Illustrator 22.1.0, SVG Export Plug-In . SVG Version: 6.00 Build 0)  -->
<svg version="1.1" id="Layer_1" xmlns="http://www.w3.org/2000/svg" xmlns:xlink="http://www.w3.org/1999/xlink" x="0px" y="0px"
	 viewBox="0 0 512 512" style="enable-background:new 0 0 512 512;" xml:space="preserve">
<style type="text/css">
	.st0{fill:#6555DC;}
</style>
<g>
	<path class="st0" d="M424,100.2c0-0.1,0-0.2,0-0.3c0-0.4-0.1-0.9-0.2-1.3c0,0,0,0,0,0c-0.1-0.4-0.2-0.8-0.3-1.2
		c0-0.1-0.1-0.2-0.1-0.3c-0.1-0.4-0.3-0.8-0.5-1.1c0,0,0,0,0-0.1c-0.2-0.4-0.4-0.7-0.7-1.1c-0.1-0.1-0.1-0.2-0.2-0.3
		c-0.3-0.4-0.6-0.7-0.9-1L330.6,2.9c-0.3-0.3-0.7-0.6-1-0.9c-0.1-0.1-0.2-0.1-0.3-0.2c-0.4-0.3-0.7-0.5-1.1-0.7c0,0-0.1,0-0.1,0
		c-0.4-0.2-0.7-0.3-1.1-0.5c-0.1,0-0.2-0.1-0.3-0.1c-0.4-0.1-0.8-0.3-1.2-0.3c0,0,0,0,0,0c-0.4-0.1-0.8-0.1-1.3-0.2
		c-0.1,0-0.2,0-0.3,0c-0.1,0-0.2,0-0.3,0H97c-5.5,0-10,4.5-10,10v428c0,5.5,4.5,10,10,10h150.6v54c0,3.6,2,7,5.2,8.8
		c3.2,1.8,7.1,1.7,10.2-0.3l38.1-23.9l38.1,23.9c1.6,1,3.5,1.5,5.3,1.5c1.7,0,3.3-0.4,4.8-1.2c3.2-1.8,5.2-5.1,5.2-8.8v-54h59.7
		c5.5,0,10-4.5,10-10V100.5C424.1,100.4,424,100.3,424,100.2z M333.6,34.1l56.3,56.3h-56.3V34.1z M242.6,308.9
		c-0.7-1.9-1.8-5-1.9-6.3c0.8-1,3.5-2.7,5.2-3.7c3.6-2.3,7.6-4.8,10.5-8.8c3-4,4.2-8.7,5.2-12.8c0.5-1.8,1.2-4.7,1.9-5.8
		c0.4-0.1,1.1-0.2,2.5-0.2c1.1,0,2.4,0.1,3.7,0.1c1.5,0.1,3.1,0.2,4.7,0.2c3.6,0,6.5-0.4,9.1-1.3c4.6-1.5,8.3-4.5,11.5-7.1
		c1.8-1.4,4.8-3.9,5.9-4c1.1,0.1,4.1,2.6,5.9,4c3.3,2.6,6.9,5.6,11.5,7.1c2.6,0.9,5.5,1.3,9.1,1.3c1.6,0,3.2-0.1,4.7-0.2
		c1.3-0.1,2.6-0.1,3.7-0.1c1.4,0,2.1,0.1,2.5,0.2c0.6,1.1,1.4,4,1.9,5.8c1.1,4.1,2.3,8.8,5.2,12.8c2.9,4,7,6.5,10.5,8.8
		c1.7,1.1,4.4,2.8,5.1,3.7c0,1.3-1.2,4.4-1.9,6.3c-1.5,4.1-3.2,8.6-3.2,13.7s1.7,9.7,3.2,13.7c0.7,1.9,1.8,5,1.9,6.3
		c-0.8,1-3.5,2.7-5.1,3.7c-3.6,2.3-7.6,4.8-10.5,8.8c-3,4-4.2,8.7-5.2,12.8c-0.5,1.8-1.2,4.7-1.9,5.8c-0.4,0.1-1.1,0.2-2.5,0.2
		c-1.1,0-2.4-0.1-3.7-0.1c-1.5-0.1-3.1-0.2-4.7-0.2c-3.6,0-6.5,0.4-9.1,1.3c-4.6,1.5-8.3,4.5-11.5,7.1c-1.8,1.4-4.7,3.8-5.9,4
		c-1.2-0.2-4.1-2.6-5.9-4c-3.3-2.6-6.9-5.6-11.5-7.1c-2.6-0.9-5.5-1.3-9.1-1.3c-1.6,0-3.2,0.1-4.7,0.2c-1.3,0.1-2.6,0.1-3.7,0.1
		c-1.4,0-2.1-0.1-2.5-0.2c-0.6-1.1-1.4-4-1.9-5.8c-1.1-4.1-2.3-8.8-5.2-12.8c-2.9-4-7-6.5-10.5-8.8c-1.7-1-4.4-2.8-5.1-3.7
		c0-1.3,1.2-4.4,1.9-6.3c1.5-4.1,3.2-8.6,3.2-13.7C245.8,317.5,244.1,312.9,242.6,308.9z M334.4,483.9l-28.1-17.6
		c-3.3-2-7.4-2-10.6,0l-28.1,17.6v-90c1.1,0,2.1-0.1,3.1-0.1c1.3-0.1,2.6-0.1,3.7-0.1c1.8,0,2.5,0.2,2.8,0.3
		c1.2,0.4,3.5,2.2,5.3,3.7c4.7,3.8,10.5,8.4,18.4,8.4s13.8-4.7,18.4-8.4c1.8-1.5,4.1-3.3,5.3-3.7c0.3-0.1,1.1-0.3,2.8-0.3
		c1.1,0,2.4,0.1,3.7,0.1c1,0.1,2.1,0.1,3.1,0.1L334.4,483.9L334.4,483.9z M354.4,428v-42.2c3-4,4.2-8.8,5.3-12.9
		c0.6-2.1,1.3-5.1,2-6c0.7-0.9,3.2-2.5,5.1-3.7c4.9-3.1,11-7,13.5-14.3c2.4-7.2-0.1-14-2.1-19.5c-0.9-2.5-1.9-5.3-1.9-6.9
		s1-4.4,1.9-6.8c2-5.5,4.5-12.3,2.1-19.5c-2.4-7.3-8.6-11.2-13.5-14.3c-1.9-1.2-4.4-2.8-5.1-3.7c-0.7-0.9-1.4-3.9-2-6
		c-1.4-5.6-3.2-12.5-9.4-17c-4.9-3.6-10.5-4-14.3-4c-1.6,0-3.2,0.1-4.7,0.2c-1.3,0.1-2.6,0.1-3.7,0.1c-1.8,0-2.5-0.2-2.8-0.3
		c-1.2-0.4-3.5-2.2-5.3-3.7c-4.7-3.8-10.5-8.4-18.4-8.4c-8,0-13.8,4.7-18.4,8.4c-1.8,1.5-4.1,3.3-5.3,3.7c-0.3,0.1-1.1,0.3-2.8,0.3
		c-1.1,0-2.4-0.1-3.7-0.1c-1.5-0.1-3.1-0.2-4.7-0.2c-3.8,0-9.5,0.4-14.3,4c-6.1,4.5-7.9,11.4-9.4,17c-0.6,2.1-1.3,5.1-2,6
		c-0.7,0.9-3.2,2.5-5.1,3.7c-4.9,3.1-11,7-13.5,14.3c-2.4,7.2,0.1,14.1,2.1,19.5c0.9,2.5,1.9,5.3,1.9,6.8s-1,4.4-1.9,6.9
		c-2,5.5-4.5,12.3-2.1,19.5c2.4,7.3,8.6,11.2,13.5,14.3c1.9,1.2,4.4,2.8,5.1,3.7c0.7,0.9,1.4,3.9,2,6c1.1,4.1,2.3,8.8,5.3,12.9V428
		H107V20h206.6v80.5c0,5.5,4.5,10,10,10h80.5V428H354.4z"/>
	<path class="st0" d="M145.9,110.5h128.8c5.5,0,10-4.5,10-10s-4.5-10-10-10H145.9c-5.5,0-10,4.5-10,10S140.3,110.5,145.9,110.5z"/>
	<path class="st0" d="M366.3,141H145.9c-5.5,0-10,4.5-10,10s4.5,10,10,10h220.4c5.5,0,10-4.5,10-10S371.8,141,366.3,141z"/>
	<path class="st0" d="M326.3,191.4H145.9c-5.5,0-10,4.5-10,10c0,5.5,4.5,10,10,10h180.4c5.5,0,10-4.5,10-10
		C336.3,195.9,331.8,191.4,326.3,191.4z"/>
	<path class="st0" d="M366.3,191.4c-5.5,0-10,4.5-10,10s4.5,10,10,10c5.5,0,10-4.5,10-10S371.8,191.4,366.3,191.4z"/>
</g>
</svg>
