<?xml version="1.0" encoding="utf-8"?>
<!-- Generator: Adobe Illustrator 22.1.0, SVG Export Plug-In . SVG Version: 6.00 Build 0)  -->
<svg version="1.1" id="Layer_1" xmlns="http://www.w3.org/2000/svg" xmlns:xlink="http://www.w3.org/1999/xlink" x="0px" y="0px"
	 viewBox="0 0 287.9 60.1" style="enable-background:new 0 0 287.9 60.1;" xml:space="preserve">
<g>
	<path d="M44.1,9.5v37.9h-9.2V21.8L23.7,36.6L12.9,21.8v25.6H4V9.5h9.4l10.6,14.8L34.9,9.5H44.1z"/>
	<path d="M77.9,35.2h-19c0.7,4,3.4,6,8,6c1.4,0,2.8-0.2,4.1-0.6c1.3-0.4,2.8-0.9,4.3-1.6v7.3c-3.1,1.3-6.6,1.9-10.5,1.9
		c-2.9,0-5.5-0.6-7.7-1.8c-2.2-1.2-3.9-2.9-5.1-5.1c-1.2-2.2-1.8-4.9-1.8-7.9c0-5,1.2-8.9,3.7-11.6c2.5-2.8,6-4.1,10.6-4.1
		C73.6,17.7,78.1,23.5,77.9,35.2z M58.9,29.8h10.6c-0.3-2-0.8-3.5-1.6-4.4c-0.8-0.9-2-1.3-3.6-1.3C61.3,24.2,59.5,26,58.9,29.8z"/>
	<path d="M88.2,46.2c-1.6-1.6-2.5-3.8-2.5-6.7V25.1h-4.2v-6.5h4.2v-7.9h8.9v7.9h6.3v6.5h-6.3v13.3c0,1,0.2,1.7,0.6,2.2
		c0.4,0.5,1.1,0.7,2.1,0.7c0.6,0,1.2-0.1,1.9-0.3c0.6-0.2,1.2-0.5,1.7-0.9v7.2c-1.4,0.8-3.2,1.2-5.3,1.2
		C92.3,48.6,89.9,47.8,88.2,46.2z"/>
	<path d="M107.4,21.6c0.6-0.5,1.6-1,3-1.6c1.4-0.6,3-1.1,4.8-1.6c1.8-0.4,3.5-0.7,5.1-0.7c3.1,0,5.3,0.5,6.5,1.4v6.2
		c-1.5-0.3-3.7-0.5-6.5-0.5c-1.8,0-3.2,0.1-4.4,0.3v22.2h-8.5V21.6z"/>
	<path d="M132.7,44.4c-2.4-2.6-3.6-6.4-3.6-11.5c0-5.3,1.2-9.2,3.6-11.6c2.4-2.4,6.1-3.6,11-3.6c4.9,0,8.6,1.2,11,3.7
		c2.5,2.5,3.7,6.3,3.7,11.5c0,5-1.3,8.8-3.8,11.4s-6.2,3.9-10.9,3.9C138.8,48.3,135.2,47,132.7,44.4z M148.4,39.3
		c1.1-1.5,1.6-3.6,1.6-6.4c0-3.1-0.5-5.3-1.6-6.6s-2.6-2-4.8-2c-2.2,0-3.8,0.7-4.8,2c-1,1.3-1.5,3.5-1.5,6.6c0,2.9,0.5,5.1,1.5,6.5
		c1,1.4,2.6,2.1,4.7,2.1C145.7,41.5,147.3,40.8,148.4,39.3z"/>
	<path d="M188.7,21.3c2.5,2.4,3.8,6.4,3.8,12c0,4.5-1.1,8.1-3.4,10.9c-2.3,2.7-5.4,4.1-9.3,4.1c-2.9,0-5.3-0.5-7.2-1.5v11h-8.3v-33
		c0-2.3,1.3-4.1,3.8-5.2c2.6-1.2,5.8-1.8,9.9-1.8C182.6,17.7,186.2,18.9,188.7,21.3z M182.4,39.5c1.1-1.3,1.7-3.5,1.7-6.5
		c0-2.7-0.5-4.8-1.5-6.2c-1-1.4-2.6-2.1-5-2.1c-3.4,0-5.1,0.6-5.1,1.9v13.5c0.7,0.4,1.4,0.7,2.3,0.9c0.8,0.2,1.6,0.3,2.4,0.3
		C179.6,41.4,181.3,40.8,182.4,39.5z"/>
	<path d="M200.5,44.4c-2.4-2.6-3.6-6.4-3.6-11.5c0-5.3,1.2-9.2,3.6-11.6c2.4-2.4,6.1-3.6,11-3.6c4.9,0,8.6,1.2,11,3.7
		c2.5,2.5,3.7,6.3,3.7,11.5c0,5-1.3,8.8-3.8,11.4s-6.2,3.9-10.9,3.9C206.6,48.3,202.9,47,200.5,44.4z M216.1,39.3
		c1.1-1.5,1.6-3.6,1.6-6.4c0-3.1-0.5-5.3-1.6-6.6c-1-1.3-2.6-2-4.8-2c-2.2,0-3.8,0.7-4.8,2c-1,1.3-1.5,3.5-1.5,6.6
		c0,2.9,0.5,5.1,1.5,6.5c1,1.4,2.6,2.1,4.7,2.1C213.5,41.5,215.1,40.8,216.1,39.3z"/>
	<path d="M232,47.4V7.8h8.4v39.7H232z"/>
	<path d="M247.9,8.2h8.8v6.5h-8.8V8.2z M248.1,19h8.5l0.1,28.4h-8.5V19z"/>
	<path d="M268,47.7c-1.4-0.4-2.9-0.9-4.6-1.6v-7.5c3.1,2.3,6.3,3.5,9.7,3.5c1.3,0,2.2-0.2,2.8-0.7c0.6-0.4,0.9-1,0.9-1.8
		c0-0.9-0.5-1.5-1.4-1.9c-0.9-0.4-2.5-0.9-4.6-1.4c-2.2-0.5-4-1.4-5.4-2.7c-1.4-1.4-2.1-3.4-2.1-6c0-2.2,0.6-4.1,1.7-5.5
		c1.1-1.4,2.6-2.5,4.3-3.2c1.7-0.7,3.5-1,5.4-1c2.3,0,4.1,0.2,5.5,0.6c1.4,0.4,2.8,1,4.2,1.8v6.7c-1.9-1.1-3.4-1.8-4.5-2.3
		c-1.1-0.5-2.3-0.7-3.7-0.7c-1.4,0-2.4,0.2-3.1,0.7c-0.7,0.4-1,1.1-1,1.8c0,0.9,0.4,1.6,1.1,2.1c0.8,0.4,2,0.9,3.6,1.3
		c1.9,0.5,3.4,1,4.5,1.5c1.1,0.5,2.1,1.3,3,2.4c0.9,1.2,1.3,2.8,1.3,4.9c-0.1,3.3-1.3,5.6-3.7,7.1s-5.4,2.2-9.1,2.2
		C270.9,48.3,269.3,48.1,268,47.7z"/>
</g>
</svg>
