<?xml version="1.0" encoding="utf-8"?>
<!-- Generator: Adobe Illustrator 22.1.0, SVG Export Plug-In . SVG Version: 6.00 Build 0)  -->
<svg version="1.1" id="Layer_1" xmlns="http://www.w3.org/2000/svg" xmlns:xlink="http://www.w3.org/1999/xlink" x="0px" y="0px"
	 viewBox="0 0 512 512" style="enable-background:new 0 0 512 512;" xml:space="preserve">
<style type="text/css">
	.st0{fill:#6555DC;}
</style>
<path class="st0" d="M360,256c-5.4,0.1-10.7,0.5-16,1.3V40c0-13.2-10.8-24-24-24H64c-13.2,0-24,10.8-24,24v432c0,13.2,10.8,24,24,24
	h256c10.7-0.1,20-7.2,23-17.4c5.6,0.9,11.3,1.4,17,1.4c61.9,0,112-50.1,112-112S421.9,256,360,256z M56,40c0-4.4,3.6-8,8-8h256
	c4.4,0,8,3.6,8,8v24H56V40z M259,416c13.5,28.4,38.3,49.9,68.4,59.1c-1.3,3-4.1,4.9-7.4,4.9l0,0H64c-4.4,0-8-3.6-8-8v-56v-16V80h272
	v180.7c-59.2,17.5-92.9,79.7-75.4,138.9c0,0.1,0.1,0.3,0.1,0.4 M360,464c-53,0-96-43-96-96s43-96,96-96s96,43,96,96S413,464,360,464
	z"/>
<path class="st0" d="M418.1,322.6l-73.9,81.3l-42.1-49.1L290,365.2l48,56c1.5,1.7,3.7,2.8,6,2.8h0.1c2.3,0,4.4-0.9,5.9-2.6l80-88
	L418.1,322.6z"/>
<path class="st0" d="M93.3,129.7l104,0.1c4.1,0,7.5-3.4,7.5-7.5s-3.4-7.5-7.5-7.5l-104-0.1c-4.1,0-7.5,3.4-7.5,7.5
	S89.1,129.7,93.3,129.7z"/>
<path class="st0" d="M93.3,161.7l136,0.1c4.1,0,7.5-3.4,7.5-7.5s-3.4-7.5-7.5-7.5l-136-0.1c-4.1,0-7.5,3.4-7.5,7.5
	S89.1,161.7,93.3,161.7z"/>
<path class="st0" d="M93.3,209.7l104,0.1c4.1,0,7.5-3.4,7.5-7.5s-3.4-7.5-7.5-7.5l-104-0.1c-4.1,0-7.5,3.4-7.5,7.5
	S89.1,209.7,93.3,209.7z"/>
<path class="st0" d="M93.3,241.7l136,0.1c4.1,0,7.5-3.4,7.5-7.5s-3.4-7.5-7.5-7.5l-136-0.1c-4.1,0-7.5,3.4-7.5,7.5
	S89.1,241.7,93.3,241.7z"/>
<path class="st0" d="M93.3,289.7l104,0.1c4.1,0,7.5-3.4,7.5-7.5s-3.4-7.5-7.5-7.5l-104-0.1c-4.1,0-7.5,3.4-7.5,7.5
	S89.1,289.7,93.3,289.7z"/>
<path class="st0" d="M93.3,321.7l136,0.1c4.1,0,7.5-3.4,7.5-7.5s-3.4-7.5-7.5-7.5l-136-0.1c-4.1,0-7.5,3.4-7.5,7.5
	S89.1,321.7,93.3,321.7z"/>
<path class="st0" d="M93.3,357.9l104,0.1c4.1,0,7.5-3.4,7.5-7.5s-3.4-7.5-7.5-7.5l-104-0.1c-4.1,0-7.5,3.4-7.5,7.5
	S89.1,357.9,93.3,357.9z"/>
<path class="st0" d="M93.3,389.9l136,0.1c4.1,0,7.5-3.4,7.5-7.5s-3.4-7.5-7.5-7.5l-136-0.1c-4.1,0-7.5,3.4-7.5,7.5
	S89.1,389.9,93.3,389.9z"/>
<rect x="53.9" y="424.9" class="st0" width="220.5" height="15.3"/>
</svg>
