<?xml version="1.0" encoding="utf-8"?>
<!-- Generator: Adobe Illustrator 22.1.0, SVG Export Plug-In . SVG Version: 6.00 Build 0)  -->
<svg version="1.1" id="Layer_1" xmlns="http://www.w3.org/2000/svg" xmlns:xlink="http://www.w3.org/1999/xlink" x="0px" y="0px"
	 viewBox="0 0 463 463" style="enable-background:new 0 0 463 463;" xml:space="preserve">
<style type="text/css">
	.st0{fill:#6555DC;}
</style>
<path class="st0" d="M367.5,32h-57.7c-3.1-9.3-11.9-16-22.3-16h-24.4C255.7,6,244,0,231.5,0s-24.2,6-31.6,16h-24.4
	c-10.3,0-19.1,6.7-22.3,16H95.5C78.1,32,64,46.1,64,63.5v368c0,17.4,14.1,31.5,31.5,31.5h272c17.4,0,31.5-14.1,31.5-31.5v-368
	C399,46.1,384.9,32,367.5,32L367.5,32z M153.2,79c3.1,9.3,11.9,16,22.3,16h112c10.3,0,19.1-6.7,22.3-16H352v337H111V79H153.2
	L153.2,79z M175.5,31h28.4c2.7,0,5.1-1.4,6.5-3.7c4.5-7.7,12.4-12.3,21.1-12.3s16.6,4.6,21.1,12.3c1.3,2.3,3.8,3.7,6.5,3.7h28.4
	c4.7,0,8.5,3.8,8.5,8.5v32l0,0l0,0c0,4.7-3.8,8.5-8.5,8.5h-112c-4.7,0-8.5-3.8-8.5-8.5l0,0l0,0v-32C167,34.8,170.8,31,175.5,31
	L175.5,31z M384,431.5c0,9.1-7.4,16.5-16.5,16.5h-272c-9.1,0-16.5-7.4-16.5-16.5v-368C79,54.4,86.4,47,95.5,47H152v17h-48.5
	c-4.1,0-7.5,3.4-7.5,7.5v352c0,4.1,3.4,7.5,7.5,7.5h256c4.1,0,7.5-3.4,7.5-7.5v-352c0-4.1-3.4-7.5-7.5-7.5H311V47h56.5
	c9.1,0,16.5,7.4,16.5,16.5V431.5z"/>
<path class="st0" d="M231.5,63c4.1,0,7.5-3.4,7.5-7.5v-16c0-4.1-3.4-7.5-7.5-7.5s-7.5,3.4-7.5,7.5v16C224,59.6,227.4,63,231.5,63z"
	/>
<path class="st0" d="M162.2,196.8c1.5,1.5,3.4,2.2,5.3,2.2s3.8-0.7,5.3-2.2l40-40c2.9-2.9,2.9-7.7,0-10.6c-2.9-2.9-7.7-2.9-10.6,0
	l-34.7,34.7l-18.7-18.7c-2.9-2.9-7.7-2.9-10.6,0c-2.9,2.9-2.9,7.7,0,10.6L162.2,196.8L162.2,196.8z"/>
<path class="st0" d="M162.2,276.8c1.5,1.5,3.4,2.2,5.3,2.2s3.8-0.7,5.3-2.2l40-40c2.9-2.9,2.9-7.7,0-10.6c-2.9-2.9-7.7-2.9-10.6,0
	l-34.7,34.7l-18.7-18.7c-2.9-2.9-7.7-2.9-10.6,0c-2.9,2.9-2.9,7.7,0,10.6L162.2,276.8L162.2,276.8z"/>
<g>
	<path class="st0" d="M239.5,167h48c4.1,0,7.5-3.4,7.5-7.5s-3.4-7.5-7.5-7.5h-48c-4.1,0-7.5,3.4-7.5,7.5S235.4,167,239.5,167z"/>
	<path class="st0" d="M239.5,199h80c4.1,0,7.5-3.4,7.5-7.5s-3.4-7.5-7.5-7.5h-80c-4.1,0-7.5,3.4-7.5,7.5S235.4,199,239.5,199z"/>
	<path class="st0" d="M239.5,247h48c4.1,0,7.5-3.4,7.5-7.5s-3.4-7.5-7.5-7.5h-48c-4.1,0-7.5,3.4-7.5,7.5S235.4,247,239.5,247z"/>
	<path class="st0" d="M239.5,279h80c4.1,0,7.5-3.4,7.5-7.5s-3.4-7.5-7.5-7.5h-80c-4.1,0-7.5,3.4-7.5,7.5S235.4,279,239.5,279z"/>
	<path class="st0" d="M239.5,327h48c4.1,0,7.5-3.4,7.5-7.5s-3.4-7.5-7.5-7.5h-48c-4.1,0-7.5,3.4-7.5,7.5S235.4,327,239.5,327z"/>
	<path class="st0" d="M239.5,359h80c4.1,0,7.5-3.4,7.5-7.5s-3.4-7.5-7.5-7.5h-80c-4.1,0-7.5,3.4-7.5,7.5S235.4,359,239.5,359z"/>
</g>
<path class="st0" d="M162.2,356.8c1.5,1.5,3.4,2.2,5.3,2.2s3.8-0.7,5.3-2.2l40-40c2.9-2.9,2.9-7.7,0-10.6s-7.7-2.9-10.6,0
	l-34.7,34.7l-18.7-18.7c-2.9-2.9-7.7-2.9-10.6,0c-2.9,2.9-2.9,7.7,0,10.6L162.2,356.8L162.2,356.8z"/>
</svg>
