<?xml version="1.0" encoding="utf-8"?>
<!-- Generator: Adobe Illustrator 22.1.0, SVG Export Plug-In . SVG Version: 6.00 Build 0)  -->
<svg version="1.1" id="Capa_1" xmlns="http://www.w3.org/2000/svg" xmlns:xlink="http://www.w3.org/1999/xlink" x="0px" y="0px"
	 viewBox="0 0 512 512" style="enable-background:new 0 0 512 512;" xml:space="preserve">
<style type="text/css">
	.st0{fill:#5C6689;}
</style>
<g>
	<g>
		<path class="st0" d="M401.8,137.1H110.2c-4.1,0-7.5,3.4-7.5,7.5s3.4,7.5,7.5,7.5h291.6c4.1,0,7.5-3.4,7.5-7.5
			S405.9,137.1,401.8,137.1z"/>
	</g>
</g>
<g>
	<g>
		<path class="st0" d="M401.8,218.9H110.2c-4.1,0-7.5,3.4-7.5,7.5c0,4.1,3.4,7.5,7.5,7.5h291.6c4.1,0,7.5-3.4,7.5-7.5
			S405.9,218.9,401.8,218.9z"/>
	</g>
</g>
<g>
	<g>
		<path class="st0" d="M306.2,271.9H205.8c-4.1,0-7.5,3.4-7.5,7.5c0,4.1,3.4,7.5,7.5,7.5h100.4c4.1,0,7.5-3.4,7.5-7.5
			C313.7,275.3,310.3,271.9,306.2,271.9z"/>
	</g>
</g>
<g>
	<g>
		<path class="st0" d="M401.8,177.8H184.3c-4.1,0-7.5,3.4-7.5,7.5c0,4.1,3.4,7.5,7.5,7.5h217.5c4.1,0,7.5-3.4,7.5-7.5
			S405.9,177.8,401.8,177.8z"/>
	</g>
</g>
<g>
	<g>
		<path class="st0" d="M149.4,177.8h-39.2c-4.1,0-7.5,3.4-7.5,7.5s3.4,7.5,7.5,7.5h39.2c4.1,0,7.5-3.4,7.5-7.5
			C156.9,181.2,153.5,177.8,149.4,177.8z"/>
	</g>
</g>
<g>
	<g>
		<path class="st0" d="M473.3,124.5c-1.7-1.7-4.1-2.7-6.5-2.7c0,0,0,0,0,0c-15.2,0-27.7-11.9-28.3-27.1c-0.2-4.9-4.3-8.8-9.2-8.8
			H81.1c-5,0-9,3.9-9.2,8.8c-0.7,14.5-12.5,26.4-27,27C39.9,122,36,126,36,131v194c0,5,3.9,9,8.8,9.2c14.5,0.7,26.4,12.5,27,27
			c0.2,4.9,4.3,8.8,9.2,8.8h221.6c4.1,0,7.5-3.4,7.5-7.5c0-4.1-3.4-7.5-7.5-7.5H86.2C83.1,337,69.1,323,51,319.9V136.2
			c18.1-3.1,32.1-17.2,35.2-35.2H424c3.2,18.7,18.2,33,37,35.5v127.5c0,4.1,3.4,7.5,7.5,7.5c4.1,0,7.5-3.4,7.5-7.5V131
			C476,128.5,475,126.2,473.3,124.5z"/>
	</g>
</g>
<g>
	<g>
		<path class="st0" d="M491.2,48.4H20.8C9.3,48.4,0,57.8,0,69.3v317.5c0,11.5,9.3,20.8,20.8,20.8h315L324.7,431
			c-1.4,3-1.1,6.5,0.9,9.2c2,2.7,5.3,4,8.6,3.5l20.8-3.3l11.6,19c1.6,2.7,4.5,4.3,7.6,4.3c0.2,0,0.3,0,0.5,0
			c3.3-0.2,6.2-2.1,7.6-5.1l20.1-42.2l20.1,42.2c1.4,3,4.3,4.9,7.6,5.1c0.2,0,0.3,0,0.5,0c3.1,0,6-1.6,7.6-4.3l11.6-19l20.8,3.3
			c3.3,0.5,6.6-0.8,8.6-3.5c2-2.7,2.3-6.2,0.9-9.2l-11.2-23.4h22.4c11.5,0,20.8-9.3,20.8-20.8V69.3C512,57.8,502.7,48.4,491.2,48.4z
			 M373.5,441.9l-7.9-12.9c-1.9-3.1-5.4-4.7-9-4.2l-13.3,2.1l14-29.4c5.5,5.6,13.4,8.7,21.6,7.9c2.8-0.3,5.6,0.5,7.9,2.1
			c0.8,0.5,1.5,1,2.3,1.5L373.5,441.9z M404.1,397.3C404.1,397.3,404.1,397.3,404.1,397.3c-1.2,0.2-2.4,0.2-3.5,0c0,0-0.1,0-0.1,0
			c-1.8-0.3-3.5-0.9-5-2c-4.5-3.2-10-4.9-15.5-4.9c-0.8,0-1.7,0-2.5,0.1c-5,0.5-9.7-2.3-11.8-6.8c-0.9-2-2.1-3.9-3.5-5.6
			c-0.1-0.1-0.1-0.2-0.2-0.2c-0.1-0.1-0.1-0.2-0.2-0.3c-0.1-0.1-0.2-0.2-0.3-0.3c-2.5-2.9-5.5-5.2-9-6.8c-4.5-2.1-7.3-6.8-6.8-11.8
			c0.6-6.4-1.1-12.8-4.8-18c-2.9-4.1-2.9-9.5,0-13.6c3.7-5.2,5.4-11.6,4.8-18c-0.5-5,2.3-9.7,6.8-11.8c5.8-2.7,10.5-7.4,13.2-13.2
			c2.1-4.5,6.8-7.3,11.8-6.8c6.4,0.6,12.8-1.1,18-4.8c4.1-2.9,9.5-2.9,13.6,0c5.2,3.7,11.6,5.4,18,4.8c5-0.5,9.7,2.3,11.8,6.8
			c2.7,5.8,7.4,10.5,13.2,13.2c4.5,2.1,7.3,6.8,6.8,11.8c-0.6,6.4,1.1,12.8,4.8,18c2.9,4.1,2.9,9.5,0,13.6c-3.7,5.2-5.4,11.6-4.8,18
			c0.5,5-2.3,9.7-6.8,11.8c-3.5,1.6-6.5,3.9-9,6.8c-0.1,0.1-0.2,0.2-0.3,0.3c-0.1,0.1-0.1,0.2-0.2,0.2c-0.1,0.1-0.2,0.2-0.2,0.3
			c-1.4,1.7-2.5,3.6-3.5,5.6c-2.1,4.5-6.8,7.3-11.8,6.8c-6.4-0.6-12.8,1.1-18,4.8C407.6,396.4,405.9,397.1,404.1,397.3z M448,424.8
			c-3.6-0.6-7.1,1.1-9,4.2l-7.9,12.9L415.5,409c0.8-0.5,1.6-0.9,2.3-1.5c2.3-1.6,5.1-2.4,7.9-2.1c8.2,0.8,16.1-2.3,21.6-7.9l14,29.4
			L448,424.8z M497,386.8c0,3.2-2.6,5.8-5.8,5.8h-29.6l-3.9-8.1c0.2-0.1,0.4-0.2,0.6-0.3c10.3-4.7,16.6-15.5,15.5-26.8
			c-0.3-2.8,0.5-5.6,2.1-7.9c6.6-9.3,6.6-21.7,0-31c-1.6-2.3-2.4-5.1-2.1-7.9c1.1-11.3-5.2-22.1-15.5-26.8c-2.6-1.2-4.6-3.2-5.8-5.8
			c-4.7-10.3-15.5-16.6-26.8-15.5c-2.8,0.3-5.6-0.5-7.9-2.1c-9.3-6.6-21.7-6.6-31,0c-2.3,1.6-5.1,2.4-7.9,2.1
			c-11.3-1.1-22.1,5.2-26.8,15.5c-1.2,2.6-3.2,4.6-5.8,5.8c-10.3,4.7-16.6,15.5-15.5,26.8c0.3,2.8-0.5,5.6-2.1,7.9
			c-6.6,9.3-6.6,21.7,0,31c1.6,2.3,2.4,5.1,2.1,7.9c-1.1,11.3,5.2,22.1,15.5,26.8c0.2,0.1,0.4,0.2,0.6,0.3l-3.9,8.1H20.8
			c-3.2,0-5.8-2.6-5.8-5.8V69.3c0-3.2,2.6-5.8,5.8-5.8h470.3c3.2,0,5.8,2.6,5.8,5.8L497,386.8L497,386.8z"/>
	</g>
</g>
<g>
	<g>
		<path class="st0" d="M401.8,287.3c-25.7,0-46.6,20.9-46.6,46.6c0,25.7,20.9,46.6,46.6,46.6s46.6-20.9,46.6-46.6
			C448.4,308.2,427.5,287.3,401.8,287.3z M401.8,365.6c-17.4,0-31.6-14.2-31.6-31.6c0-17.4,14.2-31.6,31.6-31.6
			c17.4,0,31.6,14.2,31.6,31.6C433.4,351.4,419.2,365.6,401.8,365.6z"/>
	</g>
</g>
</svg>
